<?xml version="1.0" encoding="utf-8"?>
<!-- Generated by Mocodo 4.2.4 -->
<svg width="364" height="372" viewBox="0 0 364 372" xmlns="http://www.w3.org/2000/svg">
<rect x="0" y="0" width="364" height="372" fill="#f7f7f7" stroke="none" stroke-width="0"/>

<!-- Association COMMENTER -->
<g>
	<line x1="52" y1="194" x2="52" y2="51" stroke="#8073ac" stroke-width="2"/>
	<line x1="171" y1="51" x2="52" y2="51" stroke="#8073ac" stroke-width="2"/>
	<g>
		<path d="M80 26 a14 14 90 0 1 14 14 V51 h-84 V40 a14 14 90 0 1 14 -14" fill="#b2abd2" stroke="#b2abd2" stroke-width="0"/>
		<path d="M94 51 v11 a14 14 90 0 1 -14 14 H24 a14 14 90 0 1 -14 -14 V51 H84" fill="#d8daeb" stroke="#d8daeb" stroke-width="0"/>
		<rect x="10" y="26" width="84" height="50" fill="none" rx="14" stroke="#8073ac" stroke-width="2"/>
		<line x1="10" y1="51" x2="94" y2="51" stroke="#8073ac" stroke-width="1"/>
		<text x="17" y="43.75" fill="#000000" font-family="Verdana" font-size="12">commenter</text>
	</g>
	<text x="57" y="110" fill="#b35806" font-family="Verdana" font-size="12">1,N</text>
	<text x="99" y="68" fill="#b35806" font-family="Verdana" font-size="12">0,N</text>
</g>

<!-- Association NOTER -->
<g>
	<line x1="296" y1="194" x2="296" y2="51" stroke="#8073ac" stroke-width="2"/>
	<line x1="171" y1="51" x2="296" y2="51" stroke="#8073ac" stroke-width="2"/>
	<g>
		<path d="M306 26 a14 14 90 0 1 14 14 V51 h-48 V40 a14 14 90 0 1 14 -14" fill="#b2abd2" stroke="#b2abd2" stroke-width="0"/>
		<path d="M320 51 v11 a14 14 90 0 1 -14 14 H286 a14 14 90 0 1 -14 -14 V51 H48" fill="#d8daeb" stroke="#d8daeb" stroke-width="0"/>
		<rect x="272" y="26" width="48" height="50" fill="none" rx="14" stroke="#8073ac" stroke-width="2"/>
		<line x1="272" y1="51" x2="320" y2="51" stroke="#8073ac" stroke-width="1"/>
		<text x="280" y="43.75" fill="#000000" font-family="Verdana" font-size="12">noter</text>
	</g>
	<text x="301" y="118" fill="#b35806" font-family="Verdana" font-size="12">1,N</text>
	<text x="221" y="68" fill="#b35806" font-family="Verdana" font-size="12">0,N</text>
</g>

<!-- Association PROPOSER -->
<g>
	<line x1="52" y1="194" x2="171" y2="194" stroke="#8073ac" stroke-width="2"/>
	<line x1="296" y1="194" x2="171" y2="194" stroke="#8073ac" stroke-width="2"/>
	<g>
		<path d="M191 169 a14 14 90 0 1 14 14 V194 h-68 V183 a14 14 90 0 1 14 -14" fill="#b2abd2" stroke="#b2abd2" stroke-width="0"/>
		<path d="M205 194 v11 a14 14 90 0 1 -14 14 H151 a14 14 90 0 1 -14 -14 V194 H68" fill="#d8daeb" stroke="#d8daeb" stroke-width="0"/>
		<rect x="137" y="169" width="68" height="50" fill="none" rx="14" stroke="#8073ac" stroke-width="2"/>
		<line x1="137" y1="194" x2="205" y2="194" stroke="#8073ac" stroke-width="1"/>
		<text x="144" y="186.75" fill="#000000" font-family="Verdana" font-size="12">proposer</text>
	</g>
	<text x="100" y="211" fill="#b35806" font-family="Verdana" font-size="12">1,N</text>
	<text x="210" y="211" fill="#b35806" font-family="Verdana" font-size="12">0,N</text>
</g>

<!-- Association RESERVER -->
<g>
	<line x1="52" y1="194" x2="52" y2="329" stroke="#8073ac" stroke-width="2"/>
	<line x1="171" y1="329" x2="52" y2="329" stroke="#8073ac" stroke-width="2"/>
	<g>
		<path d="M71 304 a14 14 90 0 1 14 14 V329 h-66 V318 a14 14 90 0 1 14 -14" fill="#b2abd2" stroke="#b2abd2" stroke-width="0"/>
		<path d="M85 329 v11 a14 14 90 0 1 -14 14 H33 a14 14 90 0 1 -14 -14 V329 H66" fill="#d8daeb" stroke="#d8daeb" stroke-width="0"/>
		<rect x="19" y="304" width="66" height="50" fill="none" rx="14" stroke="#8073ac" stroke-width="2"/>
		<line x1="19" y1="329" x2="85" y2="329" stroke="#8073ac" stroke-width="1"/>
		<text x="27" y="321.75" fill="#000000" font-family="Verdana" font-size="12">réserver</text>
	</g>
	<text x="57" y="287" fill="#b35806" font-family="Verdana" font-size="12">1,N</text>
	<text x="97" y="346" fill="#b35806" font-family="Verdana" font-size="12">0,N</text>
</g>

<!-- Association CONCERNE -->
<g>
	<line x1="296" y1="194" x2="296" y2="329" stroke="#8073ac" stroke-width="2"/>
	<line x1="171" y1="329" x2="296" y2="329" stroke="#8073ac" stroke-width="2"/>
	<g>
		<path d="M317 304 a14 14 90 0 1 14 14 V329 h-70 V318 a14 14 90 0 1 14 -14" fill="#b2abd2" stroke="#b2abd2" stroke-width="0"/>
		<path d="M331 329 v11 a14 14 90 0 1 -14 14 H275 a14 14 90 0 1 -14 -14 V329 H70" fill="#d8daeb" stroke="#d8daeb" stroke-width="0"/>
		<rect x="261" y="304" width="70" height="50" fill="none" rx="14" stroke="#8073ac" stroke-width="2"/>
		<line x1="261" y1="329" x2="331" y2="329" stroke="#8073ac" stroke-width="1"/>
		<text x="269" y="321.75" fill="#000000" font-family="Verdana" font-size="12">concerne</text>
	</g>
	<text x="301" y="279" fill="#b35806" font-family="Verdana" font-size="12">1,N</text>
	<text x="223" y="346" fill="#b35806" font-family="Verdana" font-size="12">0,N</text>
</g>

<!-- Entity EVALUATION -->
<g>
	<g>
		<rect x="126" y="9" width="90" height="25" fill="#fdb863" stroke="none" stroke-width="0" opacity="1"/>
		<rect x="126" y="34" width="90" height="59" fill="#fee0b6" stroke="none" stroke-width="0" opacity="1"/>
		<rect x="126" y="9" width="90" height="84" fill="none" stroke="#e08214" stroke-width="2" opacity="1"/>
		<line x1="126" y1="34" x2="216" y2="34" stroke="#e08214" stroke-width="1"/>
	</g>
	<text x="140" y="26.75" fill="#000000" font-family="Verdana" font-size="12">evaluation</text>
	<text x="131" y="51.8" fill="#000000" font-family="Verdana" font-size="12">idEvaluation</text>
	<line x1="131" y1="54" x2="206" y2="54" stroke="#000000" stroke-width="1"/>
	<text x="131" y="68.8" fill="#000000" font-family="Verdana" font-size="12">note</text>
	<text x="131" y="85.8" fill="#000000" font-family="Verdana" font-size="12">commentaire</text>
</g>

<!-- Entity UTILISATEUR -->
<g>
	<g>
		<rect x="9" y="118" width="86" height="25" fill="#fdb863" stroke="none" stroke-width="0" opacity="1"/>
		<rect x="9" y="143" width="86" height="127" fill="#fee0b6" stroke="none" stroke-width="0" opacity="1"/>
		<rect x="9" y="118" width="86" height="152" fill="none" stroke="#e08214" stroke-width="2" opacity="1"/>
		<line x1="9" y1="143" x2="95" y2="143" stroke="#e08214" stroke-width="1"/>
	</g>
	<text x="22" y="135.75" fill="#000000" font-family="Verdana" font-size="12">utilisateur</text>
	<text x="14" y="160.8" fill="#000000" font-family="Verdana" font-size="12">idUtilisateur</text>
	<line x1="14" y1="163" x2="87" y2="163" stroke="#000000" stroke-width="1"/>
	<text x="14" y="177.8" fill="#000000" font-family="Verdana" font-size="12">email</text>
	<text x="14" y="194.8" fill="#000000" font-family="Verdana" font-size="12">motDePasse</text>
	<text x="14" y="211.8" fill="#000000" font-family="Verdana" font-size="12">nom</text>
	<text x="14" y="228.8" fill="#000000" font-family="Verdana" font-size="12">contact</text>
	<text x="14" y="245.8" fill="#000000" font-family="Verdana" font-size="12">photoUrl</text>
	<text x="14" y="262.8" fill="#000000" font-family="Verdana" font-size="12">rôle</text>
</g>

<!-- Entity TRAJET -->
<g>
	<g>
		<rect x="237" y="126" width="118" height="25" fill="#fdb863" stroke="none" stroke-width="0" opacity="1"/>
		<rect x="237" y="151" width="118" height="111" fill="#fee0b6" stroke="none" stroke-width="0" opacity="1"/>
		<rect x="237" y="126" width="118" height="136" fill="none" stroke="#e08214" stroke-width="2" opacity="1"/>
		<line x1="237" y1="151" x2="355" y2="151" stroke="#e08214" stroke-width="1"/>
	</g>
	<text x="279" y="143.75" fill="#000000" font-family="Verdana" font-size="12">trajet</text>
	<text x="242" y="168.8" fill="#000000" font-family="Verdana" font-size="12">idTrajet</text>
	<line x1="242" y1="171" x2="290" y2="171" stroke="#000000" stroke-width="1"/>
	<text x="242" y="185.8" fill="#000000" font-family="Verdana" font-size="12">départ</text>
	<text x="242" y="202.8" fill="#000000" font-family="Verdana" font-size="12">arrivée</text>
	<text x="242" y="219.8" fill="#000000" font-family="Verdana" font-size="12">dateHeure</text>
	<text x="242" y="236.8" fill="#000000" font-family="Verdana" font-size="12">placesDisponibles</text>
	<text x="242" y="253.8" fill="#000000" font-family="Verdana" font-size="12">prix</text>
</g>

<!-- Entity RESERVATION -->
<g>
	<g>
		<rect x="124" y="295" width="94" height="25" fill="#fdb863" stroke="none" stroke-width="0" opacity="1"/>
		<rect x="124" y="320" width="94" height="43" fill="#fee0b6" stroke="none" stroke-width="0" opacity="1"/>
		<rect x="124" y="295" width="94" height="68" fill="none" stroke="#e08214" stroke-width="2" opacity="1"/>
		<line x1="124" y1="320" x2="218" y2="320" stroke="#e08214" stroke-width="1"/>
	</g>
	<text x="137" y="312.75" fill="#000000" font-family="Verdana" font-size="12">reservation</text>
	<text x="129" y="337.8" fill="#000000" font-family="Verdana" font-size="12">idReservation</text>
	<line x1="129" y1="340" x2="212" y2="340" stroke="#000000" stroke-width="1"/>
	<text x="129" y="354.8" fill="#000000" font-family="Verdana" font-size="12">status</text>
</g>
</svg>