<?xml version="1.0" encoding="utf-8"?>
<!-- Generated by Mocodo 4.2.4 -->
<svg width="404" height="390" viewBox="0 0 404 390" xmlns="http://www.w3.org/2000/svg">
<rect x="0" y="0" width="404" height="390" fill="#f7f7f7" stroke="none" stroke-width="0"/>

<!-- Association COMMENTER -->
<g>
	<line x1="77" y1="203" x2="77" y2="51" stroke="#8073ac" stroke-width="2"/>
	<line x1="211" y1="51" x2="77" y2="51" stroke="#8073ac" stroke-width="2"/>
	<g>
		<path d="M105 26 a14 14 90 0 1 14 14 V51 h-84 V40 a14 14 90 0 1 14 -14" fill="#b2abd2" stroke="#b2abd2" stroke-width="0"/>
		<path d="M119 51 v11 a14 14 90 0 1 -14 14 H49 a14 14 90 0 1 -14 -14 V51 H84" fill="#d8daeb" stroke="#d8daeb" stroke-width="0"/>
		<rect x="35" y="26" width="84" height="50" fill="none" rx="14" stroke="#8073ac" stroke-width="2"/>
		<line x1="35" y1="51" x2="119" y2="51" stroke="#8073ac" stroke-width="1"/>
		<text x="42" y="43.75" fill="#000000" font-family="Verdana" font-size="12">commenter</text>
	</g>
	<text x="82" y="110" fill="#b35806" font-family="Verdana" font-size="12">1,N</text>
	<text x="139" y="68" fill="#b35806" font-family="Verdana" font-size="12">0,N</text>
</g>

<!-- Association NOTER -->
<g>
	<line x1="336" y1="203" x2="336" y2="51" stroke="#8073ac" stroke-width="2"/>
	<line x1="211" y1="51" x2="336" y2="51" stroke="#8073ac" stroke-width="2"/>
	<g>
		<path d="M346 26 a14 14 90 0 1 14 14 V51 h-48 V40 a14 14 90 0 1 14 -14" fill="#b2abd2" stroke="#b2abd2" stroke-width="0"/>
		<path d="M360 51 v11 a14 14 90 0 1 -14 14 H326 a14 14 90 0 1 -14 -14 V51 H48" fill="#d8daeb" stroke="#d8daeb" stroke-width="0"/>
		<rect x="312" y="26" width="48" height="50" fill="none" rx="14" stroke="#8073ac" stroke-width="2"/>
		<line x1="312" y1="51" x2="360" y2="51" stroke="#8073ac" stroke-width="1"/>
		<text x="320" y="43.75" fill="#000000" font-family="Verdana" font-size="12">noter</text>
	</g>
	<text x="341" y="127" fill="#b35806" font-family="Verdana" font-size="12">1,N</text>
	<text x="261" y="68" fill="#b35806" font-family="Verdana" font-size="12">0,N</text>
</g>

<!-- Association PROPOSER -->
<g>
	<line x1="77" y1="203" x2="211" y2="203" stroke="#8073ac" stroke-width="2"/>
	<line x1="336" y1="203" x2="211" y2="203" stroke="#8073ac" stroke-width="2"/>
	<g>
		<path d="M231 178 a14 14 90 0 1 14 14 V203 h-68 V192 a14 14 90 0 1 14 -14" fill="#b2abd2" stroke="#b2abd2" stroke-width="0"/>
		<path d="M245 203 v11 a14 14 90 0 1 -14 14 H191 a14 14 90 0 1 -14 -14 V203 H68" fill="#d8daeb" stroke="#d8daeb" stroke-width="0"/>
		<rect x="177" y="178" width="68" height="50" fill="none" rx="14" stroke="#8073ac" stroke-width="2"/>
		<line x1="177" y1="203" x2="245" y2="203" stroke="#8073ac" stroke-width="1"/>
		<text x="184" y="195.75" fill="#000000" font-family="Verdana" font-size="12">proposer</text>
	</g>
	<text x="150" y="220" fill="#b35806" font-family="Verdana" font-size="12">1,N</text>
	<text x="250" y="220" fill="#b35806" font-family="Verdana" font-size="12">0,N</text>
</g>

<!-- Association RESERVER -->
<g>
	<line x1="77" y1="203" x2="77" y2="347" stroke="#8073ac" stroke-width="2"/>
	<line x1="211" y1="347" x2="77" y2="347" stroke="#8073ac" stroke-width="2"/>
	<g>
		<path d="M96 322 a14 14 90 0 1 14 14 V347 h-66 V336 a14 14 90 0 1 14 -14" fill="#b2abd2" stroke="#b2abd2" stroke-width="0"/>
		<path d="M110 347 v11 a14 14 90 0 1 -14 14 H58 a14 14 90 0 1 -14 -14 V347 H66" fill="#d8daeb" stroke="#d8daeb" stroke-width="0"/>
		<rect x="44" y="322" width="66" height="50" fill="none" rx="14" stroke="#8073ac" stroke-width="2"/>
		<line x1="44" y1="347" x2="110" y2="347" stroke="#8073ac" stroke-width="1"/>
		<text x="52" y="339.75" fill="#000000" font-family="Verdana" font-size="12">réserver</text>
	</g>
	<text x="82" y="305" fill="#b35806" font-family="Verdana" font-size="12">1,N</text>
	<text x="137" y="364" fill="#b35806" font-family="Verdana" font-size="12">0,N</text>
</g>

<!-- Association CONCERNER -->
<g>
	<line x1="336" y1="203" x2="336" y2="347" stroke="#8073ac" stroke-width="2"/>
	<line x1="211" y1="347" x2="336" y2="347" stroke="#8073ac" stroke-width="2"/>
	<g>
		<path d="M359 322 a14 14 90 0 1 14 14 V347 h-74 V336 a14 14 90 0 1 14 -14" fill="#b2abd2" stroke="#b2abd2" stroke-width="0"/>
		<path d="M373 347 v11 a14 14 90 0 1 -14 14 H313 a14 14 90 0 1 -14 -14 V347 H74" fill="#d8daeb" stroke="#d8daeb" stroke-width="0"/>
		<rect x="299" y="322" width="74" height="50" fill="none" rx="14" stroke="#8073ac" stroke-width="2"/>
		<line x1="299" y1="347" x2="373" y2="347" stroke="#8073ac" stroke-width="1"/>
		<text x="306" y="339.75" fill="#000000" font-family="Verdana" font-size="12">concerner</text>
	</g>
	<text x="341" y="288" fill="#b35806" font-family="Verdana" font-size="12">1,N</text>
	<text x="263" y="364" fill="#b35806" font-family="Verdana" font-size="12">0,N</text>
</g>

<!-- Entity EVALUATION -->
<g>
	<g>
		<rect x="166" y="9" width="90" height="25" fill="#fdb863" stroke="none" stroke-width="0" opacity="1"/>
		<rect x="166" y="34" width="90" height="59" fill="#fee0b6" stroke="none" stroke-width="0" opacity="1"/>
		<rect x="166" y="9" width="90" height="84" fill="none" stroke="#e08214" stroke-width="2" opacity="1"/>
		<line x1="166" y1="34" x2="256" y2="34" stroke="#e08214" stroke-width="1"/>
	</g>
	<text x="180" y="26.75" fill="#000000" font-family="Verdana" font-size="12">evaluation</text>
	<text x="171" y="51.8" fill="#000000" font-family="Verdana" font-size="12">idEvaluation</text>
	<line x1="171" y1="54" x2="246" y2="54" stroke="#000000" stroke-width="1"/>
	<text x="171" y="68.8" fill="#000000" font-family="Verdana" font-size="12">note</text>
	<text x="171" y="85.8" fill="#000000" font-family="Verdana" font-size="12">commentaire</text>
</g>

<!-- Entity UTILISATEUR -->
<g>
	<g>
		<rect x="9" y="118" width="136" height="25" fill="#fdb863" stroke="none" stroke-width="0" opacity="1"/>
		<rect x="9" y="143" width="136" height="145" fill="#fee0b6" stroke="none" stroke-width="0" opacity="1"/>
		<rect x="9" y="118" width="136" height="170" fill="none" stroke="#e08214" stroke-width="2" opacity="1"/>
		<line x1="9" y1="143" x2="145" y2="143" stroke="#e08214" stroke-width="1"/>
	</g>
	<text x="47" y="135.75" fill="#000000" font-family="Verdana" font-size="12">utilisateur</text>
	<text x="14" y="160.8" fill="#000000" font-family="Verdana" font-size="12">idUtilisateur</text>
	<line x1="14" y1="163" x2="87" y2="163" stroke="#000000" stroke-width="1"/>
	<text x="14" y="177.8" fill="#000000" font-family="Verdana" font-size="12">email</text>
	<text x="14" y="194.8" fill="#000000" font-family="Verdana" font-size="12">motDePasse</text>
	<text x="14" y="211.8" fill="#000000" font-family="Verdana" font-size="12">nom</text>
	<text x="14" y="228.8" fill="#000000" font-family="Verdana" font-size="12">adresse</text>
	<text x="14" y="245.8" fill="#000000" font-family="Verdana" font-size="12">numéroDeTéléphone</text>
	<text x="14" y="262.8" fill="#000000" font-family="Verdana" font-size="12">photoUrl</text>
	<text x="14" y="279.8" fill="#000000" font-family="Verdana" font-size="12">rôle</text>
</g>

<!-- Entity TRAJET -->
<g>
	<g>
		<rect x="277" y="135" width="118" height="25" fill="#fdb863" stroke="none" stroke-width="0" opacity="1"/>
		<rect x="277" y="160" width="118" height="111" fill="#fee0b6" stroke="none" stroke-width="0" opacity="1"/>
		<rect x="277" y="135" width="118" height="136" fill="none" stroke="#e08214" stroke-width="2" opacity="1"/>
		<line x1="277" y1="160" x2="395" y2="160" stroke="#e08214" stroke-width="1"/>
	</g>
	<text x="319" y="152.75" fill="#000000" font-family="Verdana" font-size="12">trajet</text>
	<text x="282" y="177.8" fill="#000000" font-family="Verdana" font-size="12">idTrajet</text>
	<line x1="282" y1="180" x2="330" y2="180" stroke="#000000" stroke-width="1"/>
	<text x="282" y="194.8" fill="#000000" font-family="Verdana" font-size="12">départ</text>
	<text x="282" y="211.8" fill="#000000" font-family="Verdana" font-size="12">arrivée</text>
	<text x="282" y="228.8" fill="#000000" font-family="Verdana" font-size="12">dateHeure</text>
	<text x="282" y="245.8" fill="#000000" font-family="Verdana" font-size="12">placesDisponibles</text>
	<text x="282" y="262.8" fill="#000000" font-family="Verdana" font-size="12">prix</text>
</g>

<!-- Entity RESERVATION -->
<g>
	<g>
		<rect x="164" y="313" width="94" height="25" fill="#fdb863" stroke="none" stroke-width="0" opacity="1"/>
		<rect x="164" y="338" width="94" height="43" fill="#fee0b6" stroke="none" stroke-width="0" opacity="1"/>
		<rect x="164" y="313" width="94" height="68" fill="none" stroke="#e08214" stroke-width="2" opacity="1"/>
		<line x1="164" y1="338" x2="258" y2="338" stroke="#e08214" stroke-width="1"/>
	</g>
	<text x="177" y="330.75" fill="#000000" font-family="Verdana" font-size="12">reservation</text>
	<text x="169" y="355.8" fill="#000000" font-family="Verdana" font-size="12">idReservation</text>
	<line x1="169" y1="358" x2="252" y2="358" stroke="#000000" stroke-width="1"/>
	<text x="169" y="372.8" fill="#000000" font-family="Verdana" font-size="12">status</text>
</g>
</svg>